<?xml version="1.0" encoding="utf-8"?>
<svg viewBox="162.5 162.5 175 175" width="175" height="175" xmlns="http://www.w3.org/2000/svg" xmlns:xlink="http://www.w3.org/1999/xlink" xmlns:bx="https://boxy-svg.com">
  <defs>
    <linearGradient id="gradient-1-0" gradientUnits="userSpaceOnUse" x1="250" y1="162.5" x2="250" y2="337.5" xlink:href="#gradient-1"/>
    <linearGradient id="gradient-1" bx:pinned="true">
      <stop offset="0.25" style="stop-color: rgba(200, 159, 156, 0.89);"/>
      <stop offset="0.86" style="stop-color: rgba(34, 51, 59, 0.86);"/>
    </linearGradient>
  </defs>
  <rect x="162.5" y="162.5" width="175" height="175" style="stroke: rgb(0, 0, 0); fill: url(#gradient-1-0); fill-opacity: 0.67;"/>
  <path style="fill: rgb(135, 206, 235);" d="M 251.086 207.136 C 233.79 207.136 219.77 221.157 219.77 238.452 L 282.401 238.452 C 282.401 221.157 268.38 207.136 251.086 207.136 Z" data-original="#baefef" class="" id="path-6" bx:origin="-0.363047 -1.026185"/>
  <g transform="matrix(0.502995, 0, 0, 0.502995, 139.932739, 94.316422)" bx:origin="-0.053062 -0.597677">
    <path style="fill: rgb(135, 206, 235);" d="M 275.854 310.503 C 264.427 310.503 255.164 319.766 255.164 331.193 L 296.543 331.193 C 296.543 319.766 287.281 310.503 275.854 310.503 Z" data-original="#baefef" class="" id="path-1"/>
    <path style="fill: rgb(135, 206, 235);" d="M 182.75 296.71 C 175.133 296.71 168.957 302.885 168.957 310.503 L 196.544 310.503 C 196.543 302.885 190.368 296.71 182.75 296.71 Z" data-original="#baefef" class="" id="path-2"/>
    <path style="fill: rgb(135, 206, 235);" d="M 165.509 303.606 C 159.796 303.606 155.164 308.238 155.164 313.951 L 175.854 313.951 C 175.854 308.238 171.222 303.606 165.509 303.606 Z" data-original="#baefef" class="" id="path-3"/>
    <path style="fill: rgb(135, 206, 235);" d="M 249.992 305.331 C 235.709 305.331 224.13 316.91 224.13 331.193 L 275.854 331.193 C 275.854 316.91 264.275 305.331 249.992 305.331 Z" data-original="#baefef" class="" id="path-4"/>
    <path style="fill: rgb(135, 206, 235);" d="M 257.381 306.415 C 255.038 305.718 252.561 305.331 249.992 305.331 C 235.709 305.331 224.13 316.91 224.13 331.193 L 238.908 331.193 C 238.908 319.479 246.701 309.597 257.381 306.415 Z" data-original="#8de1e1" class="" id="path-5"/>
    <path style="fill: rgb(135, 206, 235);" d="M 282.75 245.07 C 259.897 245.07 241.371 263.596 241.371 286.449 L 324.13 286.449 C 324.13 263.595 305.604 245.07 282.75 245.07 Z" data-original="#baefef" class="" id="path14"/>
    <path style="fill: rgb(135, 206, 235);" d="M 152.943 257.72 C 137.03 257.72 124.13 270.62 124.13 286.534 L 181.757 286.534 C 181.757 270.62 168.857 257.72 152.943 257.72 Z" data-original="#8de1e1" class="" id="path16"/>
    <path style="fill: rgb(135, 206, 235);" d="M 238.726 226.907 C 233.088 225.228 227.127 224.296 220.944 224.296 C 186.571 224.296 158.706 252.161 158.706 286.533 L 194.27 286.533 C 194.271 258.345 213.024 234.563 238.726 226.907 Z" data-original="#8de1e1" class="" id="path20"/>
  </g>
  <g id="g10" transform="matrix(0.303245, 0, 0, 0.303245, 221.597809, 220.602432)"/>
  <g id="g48" transform="matrix(0.502995, 0, 0, 0.502995, 239.445389, 171.327042)" bx:origin="-0.846161 0">
    <g id="g46">
      <g id="g16">
        <path d="m16 10.635h96v37.909h-96z" fill="#22333b" data-original="#e64c3c" class="" id="path2"/>
        <g fill="#e0e0e0" id="g14">
          <path d="m35.444 22.815h3.987a1.75 1.75 0 0 0 0-3.5h-3.987a5.744 5.744 0 0 0 -5.737 5.738v.547a5.743 5.743 0 0 0 5.737 5.737 2.24 2.24 0 0 1 2.237 2.238v.549a2.24 2.24 0 0 1 -2.237 2.238h-3.987a1.75 1.75 0 0 0 0 3.5h3.987a5.744 5.744 0 0 0 5.737-5.738v-.549a5.744 5.744 0 0 0 -5.737-5.738 2.239 2.239 0 0 1 -2.237-2.237v-.549a2.24 2.24 0 0 1 2.237-2.236z" fill="#e0e0e0" data-original="#e0e0e0" class="" id="path4"/>
          <path d="m64 19.315a5.744 5.744 0 0 0 -5.737 5.738v13.061a1.75 1.75 0 0 0 3.5 0v-6.775h4.474v6.775a1.75 1.75 0 1 0 3.5 0v-13.061a5.744 5.744 0 0 0 -5.737-5.738zm-2.237 8.524v-2.786a2.237 2.237 0 1 1 4.474 0v2.786z" fill="#e0e0e0" data-original="#e0e0e0" class="" id="path6"/>
          <path d="m78.588 19.315h-4.3a1.75 1.75 0 0 0 -1.75 1.75v17.049a1.75 1.75 0 1 0 3.5 0v-6.775h2.168l2.394 7.319a1.75 1.75 0 0 0 3.327-1.088l-2.335-7.143a5.425 5.425 0 0 0 2.422-4.515v-1.169a5.434 5.434 0 0 0 -5.426-5.428zm-2.547 8.524v-5.024h2.547a1.93 1.93 0 0 1 1.928 1.928v1.169a1.929 1.929 0 0 1 -1.928 1.927z" fill="#e0e0e0" data-original="#e0e0e0" class="" id="path8"/>
          <path d="m53.709 19.315h-7.975a1.75 1.75 0 0 0 0 3.5h2.238v15.3a1.75 1.75 0 0 0 3.5 0v-15.3h2.237a1.75 1.75 0 0 0 0-3.5z" fill="#e0e0e0" data-original="#e0e0e0" class="" id="path10"/>
          <path d="m96.543 19.315h-7.974a1.75 1.75 0 0 0 0 3.5h2.237v15.3a1.75 1.75 0 0 0 3.5 0v-15.3h2.237a1.75 1.75 0 0 0 0-3.5z" fill="#e0e0e0" data-original="#e0e0e0" class="" id="path12"/>
        </g>
      </g>
      <g id="g30">
        <g id="g22">
          <path d="m12.5 48.544h7v72.151h-7z" fill="#489fb5" data-original="#f29c1f" class="" id="path18"/>
          <rect fill="#c89f9c" height="45.333" rx="3" width="14.182" x="8.909" y="7.302" data-original="#c93e2f" class="" id="rect20"/>
        </g>
        <g id="g28">
          <path d="m108.5 48.544h7v72.151h-7z" fill="#489fb5" data-original="#f29c1f" class="" id="path24"/>
          <rect fill="#c89f9c" height="45.333" rx="3" width="14.182" x="104.909" y="7.302" data-original="#c93e2f" class="" id="rect26"/>
        </g>
      </g>
      <g id="g44">
        <path d="m74.43 73.7h-20.86a4.971 4.971 0 0 0 -4.15 2.22l-29.92 44.77h89l-29.92-44.77a4.971 4.971 0 0 0 -4.15-2.22z" fill="#e0d68a" data-original="#9f9fa0" class="" id="path32"/>
        <g fill="#7f8284" id="g42">
          <path d="m65.75 78.78v-5.08h-3.5v5.08a1.75 1.75 0 0 0 3.5 0z" fill="#5e503f" data-original="#7f8284" class="" id="path34"/>
          <path d="m65.75 106.5v-4.76a1.75 1.75 0 0 0 -3.5 0v4.76a1.75 1.75 0 1 0 3.5 0z" fill="#5e503f" data-original="#7f8284" class="" id="path36"/>
          <path d="m64 113.86a1.752 1.752 0 0 0 -1.75 1.75v5.08h3.5v-5.08a1.752 1.752 0 0 0 -1.75-1.75z" fill="#5e503f" data-original="#7f8284" class="" id="path38"/>
          <path d="m65.75 92.648v-4.76a1.75 1.75 0 0 0 -3.5 0v4.76a1.75 1.75 0 0 0 3.5 0z" fill="#5e503f" data-original="#7f8284" class="" id="path40"/>
        </g>
      </g>
    </g>
  </g>
  <g id="g40" style="" transform="matrix(0.196549, 0, 0, 0.196549, 205.170547, 261.097504)" bx:origin="-0.977694 -0.618133">
    <g transform="matrix(1, 0, 0, 1, -281.171844, -44.886738)">
      <path style="" d="M 464.365 192.509 C 463.503 192.509 462.628 192.389 461.766 192.121 C 457.106 190.681 454.49 185.742 455.925 181.087 L 561.856 -163.189 C 563.287 -167.853 568.239 -170.482 572.886 -169.034 C 577.546 -167.594 580.162 -162.655 578.727 -158 L 472.797 186.276 C 471.633 190.07 468.137 192.509 464.365 192.509 Z" fill="#5e503f" data-original="#895438" class="" id="path-9"/>
      <path style="" d="M 561.469 192.509 C 560.607 192.509 559.732 192.389 558.87 192.121 C 554.21 190.681 551.594 185.742 553.029 181.087 L 658.96 -163.189 C 660.387 -167.853 665.339 -170.482 669.99 -169.034 C 674.65 -167.594 677.266 -162.655 675.831 -158 L 569.9 186.276 C 568.736 190.07 565.24 192.509 561.469 192.509 Z" fill="#5e503f" data-original="#895438" class="" id="path-10"/>
      <path style="" d="M 570.292 148.372 L 482.016 148.372 C 477.141 148.372 473.188 144.424 473.188 139.544 C 473.188 134.665 477.141 130.716 482.016 130.716 L 570.292 130.716 C 575.167 130.716 579.12 134.664 579.12 139.544 C 579.12 144.423 575.167 148.372 570.292 148.372 Z" fill="#5e503f" data-original="#794531" class="" id="path22"/>
      <path style="" d="M 586.568 95.406 L 498.292 95.406 C 493.417 95.406 489.464 91.458 489.464 86.578 C 489.464 81.699 493.417 77.75 498.292 77.75 L 586.568 77.75 C 591.443 77.75 595.396 81.698 595.396 86.578 C 595.395 91.458 591.443 95.406 586.568 95.406 Z" fill="#5e503f" data-original="#794531" class="" id="path-7"/>
      <path style="" d="M 603.58 42.44 L 515.304 42.44 C 510.429 42.44 506.476 38.492 506.476 33.612 C 506.476 28.733 510.429 24.784 515.304 24.784 L 603.58 24.784 C 608.455 24.784 612.408 28.732 612.408 33.612 C 612.407 38.492 608.455 42.44 603.58 42.44 Z" fill="#5e503f" data-original="#794531" class="" id="path26"/>
      <path style="" d="M 619.58 -10.525 L 531.304 -10.525 C 526.429 -10.525 522.476 -14.473 522.476 -19.353 C 522.476 -24.232 526.429 -28.181 531.304 -28.181 L 619.58 -28.181 C 624.455 -28.181 628.408 -24.233 628.408 -19.353 C 628.407 -14.473 624.455 -10.525 619.58 -10.525 Z" fill="#5e503f" data-original="#794531" class="" id="path28"/>
      <path style="" d="M 634.706 -63.491 L 546.43 -63.491 C 541.555 -63.491 537.602 -67.439 537.602 -72.319 C 537.602 -77.199 541.555 -81.147 546.43 -81.147 L 634.706 -81.147 C 639.581 -81.147 643.534 -77.199 643.534 -72.319 C 643.534 -67.439 639.581 -63.491 634.706 -63.491 Z" fill="#5e503f" data-original="#794531" class="" id="path30"/>
      <path style="" d="M 650.43 -116.456 L 562.154 -116.456 C 557.279 -116.456 553.326 -120.404 553.326 -125.284 C 553.326 -130.163 557.279 -134.112 562.154 -134.112 L 650.43 -134.112 C 655.305 -134.112 659.258 -130.164 659.258 -125.284 C 659.258 -120.404 655.305 -116.456 650.43 -116.456 Z" fill="#5e503f" data-original="#794531" class="" id="path-8"/>
    </g>
  </g>
  <g id="g-5" transform="matrix(-0.136088, 0, 0, 0.136088, 265.564331, 255.862076)" bx:origin="1 -1.169577">
    <g id="g-6">
      <g id="g-7">
        <g id="g-8">
          <g id="g32">
            <g id="g18">
              <g id="g4">
                <path d="m483.46 108.448-1.298-25.69-25.58-3.237c-1.957-6.212-4.77-12.029-8.291-17.331l13.653-21.745-19.215-17.241-20.415 15.677c-5.668-2.943-11.782-5.135-18.204-6.442l-5.823-24.939-25.878 1.31-3.279 25.399c-6.258 1.948-12.12 4.745-17.462 8.245l-21.892-13.539-17.379 19.09 15.776 20.257c-2.969 5.629-5.181 11.701-6.502 18.078l-25.123 5.8 1.298 25.69 25.58 3.237c1.957 6.212 4.77 12.029 8.291 17.331l-13.653 21.745 19.215 17.241 20.415-15.677c5.668 2.943 11.782 5.135 18.204 6.442l5.823 24.939 25.876-1.308 3.279-25.399c6.258-1.948 12.12-4.745 17.462-8.245l21.892 13.539 17.379-19.09-15.776-20.257c2.969-5.629 5.181-11.701 6.502-18.078zm-91.654 27.522c-19.847 1.003-36.743-14.157-37.738-33.86-.996-19.703 14.286-36.489 34.132-37.492s36.743 14.157 37.738 33.86-14.285 36.489-34.132 37.492z" fill="#c89f9c" data-original="#7974e3" class="" id="path-11"/>
              </g>
              <g id="g-9">
                <g id="g-10">
                  <path d="m182.511 287.026 162.199 71.115 72.219-164.718-29.813-76.537-109.046-47.811z" fill="#f0f0ff" data-original="#f0f0ff" class="" id="path-12"/>
                  <g id="g-11">
                    <path d="m376.929 193.423-65.77 150.008 33.551 14.71 72.219-164.718-18.747-48.13z" fill="#e8e8ff" data-original="#e8e8ff" class="" id="path-13"/>
                  </g>
                  <path d="m387.116 116.886-23.421 53.023 53.234 23.514z" fill="#22333b" data-original="#cfcfff" class="" id="path-14"/>
                </g>
              </g>
            </g>
            <g id="g-12">
              <g id="g26">
                <path d="m336.372 269.387h128.196v127.787h-128.196z" fill="#489fb5" data-original="#96e1ff" class="" id="path-15"/>
                <path d="m496.091 363.657-31.523 33.518v-127.788l31.523-33.518z" fill="#fdf486" data-original="#fdf486" class="" id="path-16"/>
                <path d="m464.568 269.387h-128.196l31.524-33.518h128.195z" fill="#c89f9c" data-original="#fd6dc3" class="" id="path-17"/>
              </g>
            </g>
            <path d="m383.269 485.993 14.813-14.827-12.026-17.226c2.684-4.578 4.661-9.458 5.94-14.483l20.602-3.636-.086-21.035-20.632-3.767c-1.32-5.034-3.337-9.926-6.058-14.521l11.886-17.15-14.934-14.921-17.14 11.902c-4.598-2.717-9.492-4.73-14.527-6.045l-3.785-20.629-21.035-.067-3.617 20.605c-5.024 1.283-9.902 3.265-14.478 5.953l-17.237-12.011-14.813 14.827 12.026 17.226c-2.684 4.578-4.661 9.458-5.94 14.483l-20.602 3.636.086 21.035 20.632 3.767c1.32 5.034 3.337 9.926 6.058 14.521l-11.886 17.15 14.935 14.921 17.14-11.902c4.598 2.717 9.492 4.73 14.527 6.045l3.785 20.629 21.035.067 3.617-20.605c5.024-1.283 9.902-3.265 14.478-5.953zm-64.77-42.3c-10.396-10.386-10.464-27.172-.153-37.493s27.097-10.267 37.493.119c10.395 10.386 10.464 27.172.153 37.493s-27.097 10.267-37.493-.119z" fill="#c89f9c" data-original="#7974e3" class="" id="path-18"/>
          </g>
          <g id="g38">
            <path d="m233.173 57.759c-1.225 0-2.452.01-3.683.04-81.725 1.934-148.012 69.471-148.785 151.521-.556 59.015 32.178 110.395 80.492 136.414v25.715c0 10.5 8.48 19.012 18.941 19.012h53.035z" fill="#fdf486" data-original="#fdf486" class="" id="path-19"/>
            <path d="m233.173 390.46h-53.035v41.938c0 18.838 15.271 34.109 34.109 34.109h18.926z" fill="#22333b" data-original="#cfcfff" class="" id="path-20"/>
          </g>
        </g>
        <g id="g-13">
          <path d="m391.996 439.456 20.602-3.636-.086-21.035-20.632-3.767c-1.32-5.034-3.337-9.926-6.058-14.521l11.886-17.15-14.935-14.921-17.14 11.901c-4.42-2.612-9.115-4.566-13.945-5.882 16.414 13.386 26.902 33.763 26.902 56.595 0 19.77-7.872 37.691-20.635 50.837 2.77-1.073 5.473-2.366 8.076-3.895l17.237 12.011 14.813-14.827-12.026-17.226c2.685-4.579 4.662-9.458 5.941-14.484z" fill="#c89f9c" data-original="#6b64e8" class="" id="path42"/>
        </g>
      </g>
      <g fill="#060606" id="g-14">
        <path d="m337.085 390.995c-.037-.001-.074-.001-.111-.001-9.053 0-17.549 3.516-23.933 9.905-6.41 6.416-9.92 14.958-9.883 24.053.037 9.075 3.603 17.615 10.041 24.047s14.98 9.99 24.055 10.019h.111c9.053 0 17.55-3.516 23.934-9.905 6.41-6.416 9.92-14.958 9.883-24.053-.037-9.074-3.603-17.614-10.04-24.046-6.44-6.432-14.983-9.99-24.057-10.019zm13.601 47.516c-3.564 3.567-8.322 5.562-13.386 5.507-5.088-.016-9.883-2.016-13.5-5.63-3.618-3.615-5.622-8.408-5.643-13.496-.021-5.068 1.931-9.823 5.495-13.391 3.563-3.567 8.34-5.54 13.385-5.507 5.088.017 9.883 2.016 13.501 5.631 3.618 3.614 5.622 8.407 5.642 13.495.021 5.069-1.93 9.823-5.494 13.391z" fill="#060606" data-original="#060606" class="" id="path50"/>
        <path d="m47.888 204.487h-36.166c-9.697 0-9.697 15 0 15h36.167c9.697 0 9.697-15-.001-15z" fill="#060606" data-original="#060606" class="" id="path54"/>
        <path d="m98.679 338.897-25.573 25.578c-6.857 6.857 3.751 17.464 10.607 10.605l25.573-25.578c6.857-6.857-3.751-17.463-10.607-10.605z" fill="#060606" data-original="#060606" class="" id="path56"/>
        <path d="m101.695 86.327c6.296 0 9.756-8.35 5.304-12.803l-25.574-25.578c-6.856-6.858-17.464 3.749-10.607 10.605l25.573 25.579c1.465 1.465 3.385 2.197 5.304 2.197z" fill="#060606" data-original="#060606" class="" id="path52"/>
        <path d="m503.563 235.495c-.194-3.912-3.536-7.126-7.472-7.126h-86.294l14.002-31.935c.787-1.794.831-3.909.12-5.734l-7.169-18.403c3.991-1.465 7.86-3.254 11.563-5.361l17.974 11.116c3.323 1.853 6.487 1.409 9.491-1.33l17.379-19.09c2.458-2.699 2.615-6.776.372-9.657l-12.906-16.572c1.582-3.531 2.89-7.171 3.915-10.89l20.61-4.758c3.542-.817 5.987-4.057 5.803-7.687l-1.298-25.689c-.183-3.63-2.943-6.605-6.548-7.062l-20.985-2.656c-1.394-3.596-3.063-7.085-4.993-10.439l11.169-17.788c1.941-3.092 1.375-7.133-1.343-9.57l-19.215-17.241c-2.688-2.412-6.713-2.565-9.577-.366l-16.761 12.871c-3.581-1.583-7.271-2.891-11.042-3.911l-4.768-20.42c-.826-3.533-4.071-5.989-7.682-5.785l-25.878 1.307c-3.623.183-6.595 2.933-7.06 6.53l-2.685 20.797c-3.649 1.396-7.189 3.068-10.591 5.005l-17.974-11.116c-3.071-1.898-7.06-1.341-9.491 1.33l-17.379 19.09c-2.458 2.699-2.615 6.776-.371 9.657l12.905 16.571c-1.23 2.746-2.278 5.562-3.173 8.425l-35.129-15.402c-4.359-1.442-7.652-.156-9.88 3.857l-29.818 68.009v-116.507c0-9.697-15-9.697-15 0v32.851c-51.404 2.173-98.814 29.333-127.275 73.11-5.11 7.859 7.025 16.713 12.576 8.176 25.694-39.521 68.383-64.111 114.699-66.275v317.533h-46.245c-6.309 0-11.441-5.164-11.441-11.512v-25.715c0-2.759-1.515-5.295-3.944-6.604-47.729-25.704-77.061-75.417-76.549-129.74.134-14.197 2.339-28.239 6.554-41.736 2.89-9.256-11.428-13.729-14.318-4.471-4.653 14.899-7.087 30.398-7.234 46.066-.55 58.397 30.178 111.967 80.492 140.893v21.307c0 12.006 8.004 22.168 18.941 25.419v35.53c0 22.943 18.666 41.609 41.609 41.609h12.136v26.533c0 9.697 15 9.697 15 0v-179.511l76.42 33.506-1.719 9.796c-2.523.857-4.986 1.87-7.375 3.034l-13.467-9.383c-2.981-2.078-7.024-1.72-9.593.853l-14.813 14.826c-2.569 2.571-2.924 6.614-.844 9.594l9.396 13.458c-1.162 2.391-2.173 4.854-3.028 7.379l-16.037 2.83c-3.596.635-6.211 3.766-6.197 7.416l.086 21.035c.015 3.611 2.601 6.699 6.153 7.348l16.134 2.945c.881 2.558 1.922 5.055 3.116 7.477l-9.264 13.366c-2.066 2.981-1.703 7.015.864 9.578l14.934 14.921c2.565 2.563 6.598 2.924 9.579.854l13.358-9.275c2.423 1.192 4.921 2.23 7.479 3.109l2.96 16.132c.652 3.552 3.742 6.135 7.353 6.146l21.035.066h.024c3.64 0 6.757-2.615 7.387-6.203l2.816-16.04c2.524-.857 4.986-1.87 7.375-3.034l13.466 9.383c2.982 2.079 7.025 1.721 9.593-.853l14.813-14.826c2.569-2.571 2.924-6.614.844-9.594l-9.396-13.458c1.162-2.391 2.173-4.854 3.028-7.379l16.037-2.83c3.595-.635 6.211-3.766 6.197-7.416l-.085-21.035c-.015-3.611-2.601-6.699-6.153-7.348l-15.166-2.768c21.465-.096 43.265-.099 64.461-.099 2.482.466 4.774-.276 6.876-2.227l31.523-33.519c1.308-1.392 2.037-3.229 2.037-5.139v-127.785c-.001-.126-.023-.248-.029-.374zm-24.822 7.874-17.089 18.171h-107.604l17.09-18.171zm-84.637-129.206c-.707-1.816-2.19-3.364-3.977-4.146l-28.466-12.481c1.359-13.669 12.666-24.707 26.918-25.427 15.705-.763 29.084 11.208 29.87 26.748.644 12.74-7.454 24.196-19.333 28.173zm-7.424 22.27 8.101 20.795 8.569 21.998-29.764-13.147zm-52.591-72.781-11.893-15.271 8.932-9.812 16.595 10.263c2.477 1.531 5.617 1.491 8.055-.105 4.837-3.17 10.08-5.645 15.581-7.357 2.799-.871 4.833-3.294 5.209-6.201l2.477-19.185 13.362-.675 4.398 18.837c.667 2.855 2.936 5.06 5.809 5.645 5.643 1.147 11.108 3.082 16.243 5.749 2.585 1.342 5.715 1.065 8.024-.708l15.475-11.884 9.876 8.861-10.293 16.394c-1.568 2.497-1.527 5.682.104 8.138 3.184 4.795 5.669 9.988 7.386 15.436.88 2.794 3.306 4.819 6.212 5.187l19.348 2.449.664 13.143-19.003 4.387c-2.854.658-5.063 2.919-5.657 5.786-1.158 5.594-3.107 11.011-5.792 16.101-1.375 2.608-1.095 5.78.716 8.107l11.894 15.272-8.933 9.812-16.595-10.263c-2.477-1.531-5.617-1.491-8.054.104-4.055 2.657-8.394 4.817-12.927 6.456l-6.742-17.307c17.784-6.289 29.842-23.635 28.867-42.911-1.203-23.801-21.66-42.183-45.607-40.971-20.086 1.015-36.336 15.499-40.344 34.189l-17.439-7.646c1.162-4.111 2.758-8.102 4.767-11.912 1.377-2.609 1.097-5.781-.715-8.108zm-119.842 395.355c-14.672 0-26.609-11.937-26.609-26.609v-34.438h38.745v61.047zm27.137-287.579 40.544-92.472 95.288 41.779-20.382 46.143c-1.455 4.355-.178 7.651 3.83 9.891l46.393 20.493-13.639 31.108h-25.523c-2.069 0-4.046.854-5.463 2.361l-31.523 33.519c-1.546 1.643-2.358 6.026-2.166 8.389v69.457l-1.968-.006-85.391-37.439zm163.689 258.104-14.38 2.538c-2.904.513-5.238 2.679-5.965 5.536-1.124 4.419-2.854 8.638-5.142 12.54-1.481 2.527-1.356 5.685.321 8.086l8.43 12.076-5.934 5.939-12.084-8.42c-2.403-1.675-5.562-1.796-8.087-.313-3.898 2.291-8.116 4.024-12.534 5.153-2.857.729-5.021 3.065-5.531 5.97l-2.525 14.383-8.488-.027-2.661-14.502c-.526-2.865-2.663-5.167-5.481-5.903-4.437-1.159-8.678-2.924-12.607-5.245-2.523-1.491-5.684-1.375-8.093.297l-11.994 8.327-6.07-6.063 8.317-12.001c1.669-2.409 1.783-5.57.289-8.093-2.325-3.929-4.094-8.169-5.257-12.604-.739-2.817-3.042-4.952-5.908-5.476l-14.504-2.648-.035-8.487 14.379-2.538c2.904-.513 5.238-2.679 5.965-5.536 1.124-4.419 2.854-8.638 5.142-12.54 1.481-2.527 1.356-5.685-.32-8.086l-8.431-12.076 5.934-5.939 12.083 8.42c2.402 1.676 5.561 1.797 8.086.313 3.902-2.291 8.119-4.025 12.536-5.153 2.857-.729 5.021-3.065 5.531-5.97l2.524-14.383 8.488.027 2.661 14.502c.526 2.865 2.663 5.167 5.481 5.903 4.438 1.159 8.679 2.924 12.607 5.245 2.524 1.492 5.686 1.376 8.093-.297l11.993-8.327 6.07 6.063-8.317 12.001c-1.67 2.409-1.783 5.57-.29 8.093 2.325 3.929 4.094 8.169 5.257 12.604.739 2.817 3.042 4.952 5.908 5.476l14.505 2.648zm67.016-51.301c-.003-7.385-.021-25.63-.021-25.63 0-9.697-15-9.697-15 0v36.939c-18.935.001-38.267.015-57.366.098l4.171-6.019c2.066-2.981 1.703-7.015-.863-9.578l-14.935-14.921c-2.566-2.563-6.599-2.924-9.579-.854l-13.357 9.275c-2.423-1.192-4.921-2.23-7.479-3.109l-2.96-16.132c-.945-5.15-6.382-6.815-10.853-6.158-.123-8.33.78-51.887 0-65.254h113.222v36.555c0 9.697 15 9.697 15 0 0 0 .023-28.199.023-41.106l16.5-17.544v105.892z" fill="#060606" data-original="#060606" class="" id="path48"/>
      </g>
    </g>
  </g>
  <g id="g-1" transform="matrix(0.303245, 0, 0, 0.303245, 221.597809, 220.602432)"/>
  <g id="g-2" transform="matrix(0.303245, 0, 0, 0.303245, 221.597809, 220.602432)"/>
  <g id="g-3" transform="matrix(0.303245, 0, 0, 0.303245, 221.597809, 220.602432)"/>
  <g id="g-4" transform="matrix(0.303245, 0, 0, 0.303245, 221.597809, 220.602432)"/>
  <g id="g50" transform="matrix(0.303245, 0, 0, 0.303245, 221.597809, 220.602432)"/>
  <g id="g52" transform="matrix(0.303245, 0, 0, 0.303245, 221.597809, 220.602432)"/>
  <g id="g54" transform="matrix(0.303245, 0, 0, 0.303245, 221.597809, 220.602432)"/>
  <g id="g56" transform="matrix(0.303245, 0, 0, 0.303245, 221.597809, 220.602432)"/>
  <g id="g58" transform="matrix(0.303245, 0, 0, 0.303245, 221.597809, 220.602432)"/>
  <g id="g60" transform="matrix(0.303245, 0, 0, 0.303245, 221.597809, 220.602432)"/>
  <g id="g62" transform="matrix(0.303245, 0, 0, 0.303245, 221.597809, 220.602432)"/>
  <g id="g64" transform="matrix(0.303245, 0, 0, 0.303245, 221.597809, 220.602432)"/>
  <g id="g66" transform="matrix(0.303245, 0, 0, 0.303245, 221.597809, 220.602432)"/>
  <g id="g68" transform="matrix(0.303245, 0, 0, 0.303245, 221.597809, 220.602432)"/>
  <g id="g70" transform="matrix(0.303245, 0, 0, 0.303245, 221.597809, 220.602432)"/>
  <g id="g34" transform="matrix(0.303245, 0, 0, 0.303245, 221.597809, 220.602432)"/>
</svg>